<?xml version="1.0" encoding="UTF-8" standalone="no"?>
<!-- Created with Inkscape (http://www.inkscape.org/) -->

<svg
   xmlns:dc="http://purl.org/dc/elements/1.1/"
   xmlns:cc="http://creativecommons.org/ns#"
   xmlns:rdf="http://www.w3.org/1999/02/22-rdf-syntax-ns#"
   xmlns:svg="http://www.w3.org/2000/svg"
   xmlns="http://www.w3.org/2000/svg"
   xmlns:sodipodi="http://sodipodi.sourceforge.net/DTD/sodipodi-0.dtd"
   xmlns:inkscape="http://www.inkscape.org/namespaces/inkscape"
   width="148mm"
   height="70mm"
   viewBox="0 0 148 70"
   version="1.1"
   id="svg8"
   inkscape:version="0.92.4 (5da689c313, 2019-01-14)"
   sodipodi:docname="splash.svg">
  <defs
     id="defs2" />
  <sodipodi:namedview
     id="base"
     pagecolor="#ffffff"
     bordercolor="#666666"
     borderopacity="1.0"
     inkscape:pageopacity="0.0"
     inkscape:pageshadow="2"
     inkscape:zoom="0.7"
     inkscape:cx="-74.116985"
     inkscape:cy="391.9417"
     inkscape:document-units="mm"
     inkscape:current-layer="layer1"
     showgrid="false"
     inkscape:window-width="1600"
     inkscape:window-height="796"
     inkscape:window-x="-8"
     inkscape:window-y="-8"
     inkscape:window-maximized="1" />
  <metadata
     id="metadata5">
    <rdf:RDF>
      <cc:Work
         rdf:about="">
        <dc:format>image/svg+xml</dc:format>
        <dc:type
           rdf:resource="http://purl.org/dc/dcmitype/StillImage" />
        <dc:title />
      </cc:Work>
    </rdf:RDF>
  </metadata>
  <g
     inkscape:label="Layer 1"
     inkscape:groupmode="layer"
     id="layer1"
     transform="translate(0,-227)">
    <g
       id="g80"
       style="fill:#ffffff"
       transform="translate(1.9625992,131.04051)">
      <g
         aria-label="مسیحیت چیست"
         transform="matrix(0.46323585,0,0,0.46323585,33.45417,24.400632)"
         style="font-style:normal;font-weight:normal;font-size:40px;line-height:0.80000001;font-family:sans-serif;letter-spacing:0px;word-spacing:0px;fill:#ffffff;fill-opacity:1;stroke:none"
         id="flowRoot74">
        <path
           d="m 214.99609,182.80613 q 0,0.60937 -0.375,1.64062 -0.375,1.03125 -0.98437,2.01563 -0.5625,0.98437 -1.26563,1.6875 -0.70312,0.70312 -1.3125,0.70312 -0.75,0 -1.92187,-0.375 -1.125,-0.375 -2.4375,-0.98437 -1.26563,-0.60938 -2.57813,-1.3125 -1.26562,-0.70313 -2.29687,-1.35938 -0.84375,0.98438 -1.64063,2.0625 -0.79687,1.07813 -1.59375,2.0625 -0.75,0.98438 -1.54687,1.82813 -0.75,0.84375 -1.54688,1.40625 -0.75,0.51562 -1.40625,0.84375 -0.60937,0.32812 -1.26562,0.32812 h -1.73438 q -0.89062,0 -1.40625,-0.23437 -0.51562,-0.28125 -0.75,-0.70313 -0.28125,-0.42187 -0.32812,-0.9375 -0.0937,-0.51562 -0.0937,-1.07812 0,-0.5625 0.0937,-1.07813 0.0469,-0.51562 0.32812,-0.89062 0.23438,-0.42188 0.75,-0.65625 0.51563,-0.28125 1.40625,-0.28125 h 1.73438 q 2.01562,0 3.51562,-0.89063 1.5,-0.9375 2.67188,-2.34375 1.21875,-1.45312 2.20312,-3.23437 0.98438,-1.78125 1.96875,-3.51563 0.65625,-1.125 1.26563,-2.10937 0.65625,-1.03125 1.35937,-1.82813 0.70313,-0.79687 1.45313,-1.26562 0.75,-0.46875 1.6875,-0.46875 1.07812,0 1.82812,0.42187 0.79688,0.42188 1.5,1.59375 0.5625,0.98438 1.07813,2.25 0.51562,1.21875 0.84375,2.48438 0.375,1.26562 0.5625,2.39062 0.23437,1.125 0.23437,1.82813 z m -4.92187,-2.10938 q 0,-0.51562 -0.28125,-1.125 -0.23438,-0.60937 -0.70313,-1.125 -0.42187,-0.5625 -0.98437,-0.9375 -0.5625,-0.375 -1.17188,-0.375 -0.9375,0 -1.59375,0.65625 -0.60937,0.65625 -0.60937,1.45313 0,0.14062 0.0937,0.32812 0.0937,0.1875 0.46875,0.42188 0.46875,0.28125 1.125,0.51562 0.70312,0.23438 1.35937,0.42188 0.65625,0.1875 1.17188,0.32812 0.51562,0.0937 0.65625,0.0937 0.46875,0 0.46875,-0.65625 z"
           style="font-style:normal;font-variant:normal;font-weight:normal;font-stretch:normal;font-size:96px;line-height:0.60000002;font-family:Scheherazade;-inkscape-font-specification:Scheherazade;fill:#ffffff"
           id="path64" />
        <path
           d="m 194.69922,190.39988 q 0,0.5625 -0.0937,1.07812 -0.0469,0.51563 -0.32813,0.9375 -0.23437,0.42188 -0.75,0.70313 -0.51562,0.23437 -1.40625,0.23437 h -1.73437 q -2.48438,0 -4.40625,-2.0625 -1.92188,-2.10937 -3.28125,-5.34375 -0.65625,1.35938 -1.35938,2.48438 -0.65625,1.125 -1.54687,1.96875 -0.84375,0.84375 -1.92188,1.3125 -1.03125,0.46875 -2.34375,0.46875 -1.26562,0 -2.15625,-0.32813 -0.84375,-0.32812 -1.45312,-0.89062 -0.60938,-0.5625 -1.03125,-1.3125 -0.375,-0.75 -0.65625,-1.59375 -1.78125,2.48437 -3.98438,3.84375 -2.15625,1.35937 -5.625,1.35937 -2.25,0 -4.03125,-1.07812 -1.73437,-1.125 -2.95312,-3.70313 -1.78125,2.67188 -3.98438,3.79688 -2.20312,1.07812 -4.64062,1.07812 h -1.73438 q -0.89062,0 -1.40625,-0.23437 -0.51562,-0.28125 -0.75,-0.70313 -0.28125,-0.42187 -0.32812,-0.9375 -0.0937,-0.51562 -0.0937,-1.07812 0,-0.5625 0.0937,-1.07813 0.0469,-0.51562 0.32812,-0.89062 0.23438,-0.42188 0.75,-0.65625 0.51563,-0.28125 1.40625,-0.28125 h 1.73438 q 2.0625,0 3.5625,-0.46875 1.5,-0.46875 2.57812,-1.125 1.07813,-0.70313 1.78125,-1.5 0.70313,-0.84375 1.17188,-1.5 0.51562,-0.70313 0.84375,-1.17188 0.32812,-0.46875 0.60937,-0.46875 0.32813,0 0.42188,0.46875 0.0937,0.42188 0.1875,1.125 0.14062,0.65625 0.32812,1.45313 0.23438,0.75 0.75,1.45312 0.5625,0.65625 1.5,1.125 0.98438,0.42188 2.57813,0.42188 2.10937,0 3.70312,-0.51563 1.59375,-0.51562 2.71875,-1.3125 1.17188,-0.79687 1.96875,-1.6875 0.79688,-0.89062 1.3125,-1.6875 0.5625,-0.79687 0.84375,-1.3125 0.32813,-0.51562 0.5625,-0.51562 0.14063,0 0.42188,0.28125 0.28125,0.28125 0.28125,0.98437 0,0.65625 0.14062,1.35938 0.14063,0.70312 0.5625,1.26562 0.42188,0.5625 1.125,0.9375 0.75,0.375 1.92188,0.375 1.6875,0 2.71875,-0.84375 1.07812,-0.84375 1.73437,-1.82812 0.65625,-1.03125 0.98438,-1.875 0.32812,-0.84375 0.60937,-0.84375 0.28125,0 0.42188,0.28125 0.14062,0.23437 0.32812,0.79687 0.23438,0.79688 0.75,1.875 0.51563,1.07813 1.3125,2.0625 0.84375,0.98438 1.96875,1.6875 1.17188,0.70313 2.67188,0.70313 h 1.73437 q 0.89063,0 1.40625,0.28125 0.51563,0.23437 0.75,0.65625 0.28125,0.375 0.32813,0.89062 0.0937,0.51563 0.0937,1.07813 z"
           style="font-style:normal;font-variant:normal;font-weight:normal;font-stretch:normal;font-size:96px;line-height:0.60000002;font-family:Scheherazade;-inkscape-font-specification:Scheherazade;fill:#ffffff"
           id="path66" />
        <path
           d="m 147.02734,190.39988 q 0,0.5625 -0.0937,1.07812 -0.0469,0.51563 -0.32812,0.9375 -0.23438,0.42188 -0.75,0.70313 -0.51563,0.23437 -1.40625,0.23437 h -1.82813 q -1.3125,0 -2.20312,-0.42187 -0.89063,-0.42188 -1.64063,-1.21875 -0.51562,-0.5625 -1.125,-1.5 -0.60937,-0.98438 -0.98437,-1.82813 -0.84375,0.9375 -1.6875,1.82813 -0.84375,0.89062 -1.875,1.59375 -1.03125,0.70312 -2.34375,1.125 -1.26563,0.42187 -3,0.42187 h -1.73438 q -0.89062,0 -1.40625,-0.23437 -0.51562,-0.28125 -0.75,-0.70313 -0.28125,-0.42187 -0.32812,-0.9375 -0.0937,-0.51562 -0.0937,-1.07812 0,-0.5625 0.0937,-1.07813 0.0469,-0.51562 0.32812,-0.89062 0.23438,-0.42188 0.75,-0.65625 0.51563,-0.28125 1.40625,-0.28125 h 1.73438 q 2.10937,0 3.65625,-0.42188 1.54687,-0.46875 2.625,-1.17187 1.125,-0.70313 1.82812,-1.45313 0.75,-0.79687 1.21875,-1.5 0.46875,-0.70312 0.75,-1.125 0.32813,-0.46875 0.5625,-0.46875 0.28125,0 0.375,0.79688 0.0937,0.79687 0.46875,1.78125 0.1875,0.5625 0.46875,1.21875 0.32813,0.60937 0.70313,1.17187 0.42187,0.51563 0.9375,0.84375 0.5625,0.32813 1.26562,0.32813 h 1.82813 q 0.89062,0 1.40625,0.28125 0.51562,0.23437 0.75,0.65625 0.28125,0.375 0.32812,0.89062 0.0937,0.51563 0.0937,1.07813 z m -4.40625,10.875 q 0,0.1875 -0.42187,0.9375 -0.42188,0.75 -0.98438,1.54687 -0.51562,0.84375 -1.03125,1.5 -0.46875,0.65625 -0.65625,0.65625 -0.0937,0 -0.75,-0.46875 -0.60937,-0.42187 -1.35937,-0.98437 -0.84375,-0.60938 -1.92188,-1.45313 -0.1875,-0.1875 -0.32812,-0.1875 -0.14063,0 -0.32813,0.1875 -0.70312,1.03125 -1.26562,1.82813 -0.51563,0.70312 -0.98438,1.26562 -0.42187,0.5625 -0.5625,0.5625 -0.14062,0 -0.84375,-0.46875 -0.65625,-0.42187 -1.40625,-0.98437 -0.75,-0.5625 -1.35937,-1.07813 -0.60938,-0.51562 -0.60938,-0.65625 0,-0.1875 0.42188,-0.9375 0.46875,-0.70312 1.03125,-1.54687 0.5625,-0.79688 1.03125,-1.45313 0.51562,-0.65625 0.60937,-0.65625 0.23438,0 0.84375,0.46875 0.60938,0.46875 1.26563,0.98438 0.79687,0.60937 1.73437,1.40625 0.28125,0.28125 0.42188,0.28125 0.14062,0 0.32812,-0.375 0.70313,-0.98438 1.3125,-1.78125 0.51563,-0.65625 0.98438,-1.26563 0.46875,-0.5625 0.5625,-0.5625 0.14062,0 0.84375,0.46875 0.70312,0.46875 1.45312,1.03125 0.75,0.60938 1.35938,1.125 0.60937,0.51563 0.60937,0.60938 z"
           style="font-style:normal;font-variant:normal;font-weight:normal;font-stretch:normal;font-size:96px;line-height:0.60000002;font-family:Scheherazade;-inkscape-font-specification:Scheherazade;fill:#ffffff"
           id="path68" />
        <path
           d="m 129.77734,190.39988 q 0,0.5625 -0.0937,1.07812 -0.0469,0.51563 -0.32812,0.9375 -0.23438,0.42188 -0.75,0.70313 -0.51563,0.23437 -1.40625,0.23437 h -1.73438 q -5.85937,0 -9.32812,-0.375 -3.46875,-0.42187 -5.10938,-1.54687 -1.03125,-0.70313 -1.45312,-1.6875 -0.42188,-1.03125 -0.42188,-2.4375 0,-0.9375 0.1875,-1.82813 0.23438,-0.89062 0.46875,-1.92187 h -0.84375 q -2.76562,0 -5.0625,0.42187 -2.29687,0.375 -4.312496,1.07813 -1.96875,0.65625 -3.75,1.5 -1.734375,0.84375 -3.328125,1.73437 -1.6875,0.9375 -3.28125,1.875 -1.546875,0.89063 -3.234375,1.59375 -1.640625,0.70313 -3.421875,1.17188 -1.734375,0.42187 -3.75,0.42187 h -1.734375 q -0.890625,0 -1.40625,-0.23437 -0.515625,-0.28125 -0.75,-0.70313 -0.28125,-0.42187 -0.328125,-0.9375 -0.09375,-0.51562 -0.09375,-1.07812 0,-0.5625 0.09375,-1.07813 0.04687,-0.51562 0.328125,-0.89062 0.234375,-0.42188 0.75,-0.65625 0.515625,-0.28125 1.40625,-0.28125 h 1.734375 q 2.296875,0 4.21875,-0.23438 1.96875,-0.28125 3.65625,-0.70312 1.6875,-0.46875 3.140625,-0.98438 1.5,-0.5625 2.859375,-1.125 1.6875,-0.70312 3.328125,-1.3125 1.640625,-0.65625 3.421875,-1.03125 -0.984375,-0.375 -2.484375,-1.03125 -1.5,-0.70312 -3.28125,-1.3125 -1.78125,-0.65625 -3.75,-1.125 -1.96875,-0.46875 -3.84375,-0.46875 -0.984375,0 -1.828125,0.1875 -0.84375,0.14063 -1.5,0.375 -0.609375,0.1875 -1.03125,0.375 -0.375,0.14063 -0.421875,0.14063 -0.375,0 -0.375,-0.28125 0,-1.03125 0.421875,-1.92188 0.421875,-0.9375 1.078125,-1.73437 0.65625,-0.79688 1.453125,-1.40625 0.84375,-0.65625 1.640625,-1.07813 0.9375,-0.51562 2.0625,-0.65625 1.125,-0.14062 1.78125,-0.14062 1.453125,0 3.375,0.70312 1.96875,0.70313 4.03125,1.64063 2.0625,0.89062 4.124996,1.78125 2.0625,0.89062 3.70313,1.26562 1.875,0.42188 3.46875,0.70313 1.59375,0.23437 3.32812,0.375 1.73438,0.14062 3.75,0.1875 2.0625,0 4.82813,0 0.14062,0 0.1875,0.14062 0.0937,0.14063 0.0937,0.23438 0,0.0937 -0.14063,0.65625 -0.14062,0.51562 -0.32812,1.21875 -0.1875,0.65625 -0.375,1.3125 -0.1875,0.65625 -0.28125,0.9375 -0.0937,0.32812 -1.82813,0.42187 -1.73437,0.0469 -5.01562,0.0469 -0.0469,0.0937 -0.0469,0.28125 0,0.1875 0,0.32812 0,0.65625 0.51563,1.17188 0.51562,0.51562 1.3125,0.89062 1.03125,0.42188 2.48437,0.70313 1.45313,0.23437 3,0.32812 1.54688,0.0937 3.09375,0.14063 1.54688,0 2.8125,0 h 1.73438 q 0.89062,0 1.40625,0.28125 0.51562,0.23437 0.75,0.65625 0.28125,0.375 0.32812,0.89062 0.0937,0.51563 0.0937,1.07813 z"
           style="font-style:normal;font-variant:normal;font-weight:normal;font-stretch:normal;font-size:96px;line-height:0.60000002;font-family:Scheherazade;-inkscape-font-specification:Scheherazade;fill:#ffffff"
           id="path70" />
        <path
           d="m 80.839844,190.39988 q 0,0.5625 -0.09375,1.07812 -0.04687,0.51563 -0.328125,0.9375 -0.234375,0.42188 -0.75,0.70313 -0.515625,0.23437 -1.40625,0.23437 h -1.828125 q -1.3125,0 -2.203125,-0.42187 -0.890625,-0.42188 -1.640625,-1.21875 -0.515625,-0.5625 -1.125,-1.5 -0.609375,-0.98438 -0.984375,-1.82813 -0.84375,0.9375 -1.6875,1.82813 -0.84375,0.89062 -1.875,1.59375 -1.03125,0.70312 -2.34375,1.125 -1.265625,0.42187 -3,0.42187 h -1.734375 q -0.890625,0 -1.40625,-0.23437 -0.515625,-0.28125 -0.75,-0.70313 -0.28125,-0.42187 -0.328125,-0.9375 -0.09375,-0.51562 -0.09375,-1.07812 0,-0.5625 0.09375,-1.07813 0.04687,-0.51562 0.328125,-0.89062 0.234375,-0.42188 0.75,-0.65625 0.515625,-0.28125 1.40625,-0.28125 h 1.734375 q 2.109375,0 3.65625,-0.42188 1.546875,-0.46875 2.625,-1.17187 1.125,-0.70313 1.828125,-1.45313 0.75,-0.79687 1.21875,-1.5 0.46875,-0.70312 0.75,-1.125 0.328125,-0.46875 0.5625,-0.46875 0.28125,0 0.375,0.79688 0.09375,0.79687 0.46875,1.78125 0.1875,0.5625 0.46875,1.21875 0.328125,0.60937 0.703125,1.17187 0.421875,0.51563 0.9375,0.84375 0.5625,0.32813 1.265625,0.32813 h 1.828125 q 0.890625,0 1.40625,0.28125 0.515625,0.23437 0.75,0.65625 0.28125,0.375 0.328125,0.89062 0.09375,0.51563 0.09375,1.07813 z m -4.40625,10.875 q 0,0.1875 -0.421875,0.9375 -0.421875,0.75 -0.984375,1.54687 -0.515625,0.84375 -1.03125,1.5 -0.46875,0.65625 -0.65625,0.65625 -0.09375,0 -0.75,-0.46875 -0.609375,-0.42187 -1.359375,-0.98437 -0.84375,-0.60938 -1.921875,-1.45313 -0.1875,-0.1875 -0.328125,-0.1875 -0.140625,0 -0.328125,0.1875 -0.703125,1.03125 -1.265625,1.82813 -0.515625,0.70312 -0.984375,1.26562 -0.421875,0.5625 -0.5625,0.5625 -0.140625,0 -0.84375,-0.46875 -0.65625,-0.42187 -1.40625,-0.98437 -0.75,-0.5625 -1.359375,-1.07813 -0.609375,-0.51562 -0.609375,-0.65625 0,-0.1875 0.421875,-0.9375 0.46875,-0.70312 1.03125,-1.54687 0.5625,-0.79688 1.03125,-1.45313 0.515625,-0.65625 0.609375,-0.65625 0.234375,0 0.84375,0.46875 0.609375,0.46875 1.265625,0.98438 0.796875,0.60937 1.734375,1.40625 0.28125,0.28125 0.421875,0.28125 0.140625,0 0.328125,-0.375 0.703125,-0.98438 1.3125,-1.78125 0.515625,-0.65625 0.984375,-1.26563 0.46875,-0.5625 0.5625,-0.5625 0.140625,0 0.84375,0.46875 0.703125,0.46875 1.453125,1.03125 0.75,0.60938 1.359375,1.125 0.609375,0.51563 0.609375,0.60938 z"
           style="font-style:normal;font-variant:normal;font-weight:normal;font-stretch:normal;font-size:96px;line-height:0.60000002;font-family:Scheherazade;-inkscape-font-specification:Scheherazade;fill:#ffffff"
           id="path72" />
        <path
           d="m 63.496094,190.39988 q 0,0.5625 -0.04687,1.07812 -0.04687,0.51563 -0.28125,0.9375 -0.234375,0.42188 -0.703125,0.70313 -0.421875,0.23437 -1.21875,0.23437 h -1.875 q -1.5,0 -2.671875,-0.0937 -1.171875,-0.14062 -2.15625,-0.5625 -0.9375,-0.46875 -1.734375,-1.3125 -0.796875,-0.84375 -1.5,-2.34375 -1.546875,1.78125 -4.640625,3.28125 -3.09375,1.45313 -7.3125,2.53125 -4.21875,1.125 -9.421875,1.73438 -5.15625,0.60937 -10.875,0.60937 -4.125,0 -7.6875,-0.75 -3.5625003,-0.75 -6.2343753,-2.34375 -2.6249999,-1.54687 -4.17187495,-3.9375 -1.5,-2.39062 -1.5,-5.71875 0,-1.82812 0.46875,-3.65625 0.515625,-1.875 1.12499995,-3.375 0.65625,-1.5 1.2656251,-2.4375 0.609375,-0.9375 0.796875,-0.9375 0.140625,0 0.375,0.14063 0.28125,0.14062 0.28125,0.46875 0,0.1875 -0.28125,0.79687 -0.28125,0.5625 -0.65625,1.35938 -0.328125,0.79687 -0.609375,1.78125 -0.2812501,0.98437 -0.2812501,1.92187 0,2.39063 1.4062501,4.3125 1.4531249,1.92188 4.0781249,3.23438 2.6718753,1.3125 6.3750003,2.01562 3.703125,0.70313 8.296875,0.70313 3.9375,0 8.015625,-0.28125 4.078125,-0.32813 7.78125,-0.9375 3.703125,-0.65625 6.703125,-1.64063 3.046875,-1.03125 4.875,-2.4375 0.9375,-0.70312 1.265625,-1.40625 0.328125,-0.70312 0.75,-0.70312 0.09375,0 0.1875,0.375 0.140625,0.32812 0.328125,0.84375 0.234375,0.46875 0.5625,0.98437 0.328125,0.51563 0.84375,0.89063 0.46875,0.375 1.125,0.5625 0.703125,0.1875 1.5,0.32812 0.796875,0.0937 1.640625,0.14063 0.84375,0 1.6875,0 h 1.875 q 0.796875,0 1.21875,0.28125 0.46875,0.23437 0.703125,0.65625 0.234375,0.375 0.28125,0.89062 0.04687,0.51563 0.04687,1.07813 z M 33.542969,171.55613 q 0,0.1875 -0.421875,0.9375 -0.421875,0.75 -0.984375,1.59375 -0.515625,0.79687 -1.03125,1.45312 -0.46875,0.65625 -0.65625,0.65625 -0.09375,0 -0.75,-0.42187 -0.609375,-0.46875 -1.359375,-1.03125 -0.84375,-0.60938 -1.921875,-1.45313 -0.1875,-0.1875 -0.328125,-0.1875 -0.140625,0 -0.328125,0.1875 -0.703125,1.03125 -1.265625,1.82813 -0.515625,0.70312 -0.984375,1.26562 -0.421875,0.5625 -0.5625,0.5625 -0.140625,0 -0.84375,-0.42187 -0.65625,-0.46875 -1.40625,-1.03125 -0.75,-0.5625 -1.359375,-1.07813 -0.609375,-0.51562 -0.609375,-0.65625 0,-0.1875 0.421875,-0.89062 0.46875,-0.75 1.03125,-1.54688 0.5625,-0.84375 1.03125,-1.5 0.515625,-0.65625 0.609375,-0.65625 0.234375,0 0.84375,0.46875 0.609375,0.46875 1.265625,0.98438 0.796875,0.60937 1.734375,1.40625 0.28125,0.28125 0.421875,0.28125 0.140625,0 0.328125,-0.375 0.703125,-0.98438 1.3125,-1.78125 0.515625,-0.65625 0.984375,-1.21875 0.46875,-0.60938 0.5625,-0.60938 0.140625,0 0.84375,0.46875 0.703125,0.46875 1.453125,1.07813 0.75,0.5625 1.359375,1.07812 0.609375,0.51563 0.609375,0.60938 z"
           style="font-style:normal;font-variant:normal;font-weight:normal;font-stretch:normal;font-size:96px;line-height:0.60000002;font-family:Scheherazade;-inkscape-font-specification:Scheherazade;fill:#ffffff"
           id="path74" />
        <path
           d="m 224.65234,251.3405 q 0,0.1875 -0.25,1.1875 -0.1875,0.9375 -0.5625,2.0625 -0.3125,1.125 -0.625,2 -0.3125,0.875 -0.5,0.875 -1.9375,0 -4.25,0 -2.25,-0.0625 -4.4375,-0.125 -2.1875,-0.0625 -4.0625,-0.0625 -1.8125,-0.0625 -2.875,-0.0625 -2.375,0 -4.625,0.4375 -2.1875,0.4375 -4.1875,1.125 -2,0.625 -3.8125,1.5 -1.75,0.8125 -3.25,1.5625 -2.5625,1.3125 -5.125,2.8125 -2.5625,1.4375 -5.1875,2.6875 -2.5625,1.1875 -5.25,2 -2.625,0.8125 -5.375,0.8125 h -2.3125 q -1.1875,0 -1.875,-0.3125 -0.6875,-0.375 -1,-0.9375 -0.375,-0.5625 -0.4375,-1.25 -0.125,-0.6875 -0.125,-1.4375 0,-0.75 0.125,-1.4375 0.0625,-0.6875 0.4375,-1.1875 0.3125,-0.5625 1,-0.875 0.6875,-0.375 1.875,-0.375 h 2.3125 q 2.375,0 4.5,-0.1875 2.125,-0.1875 4.125,-0.5625 2,-0.4375 3.9375,-1.0625 2,-0.625 4.1875,-1.5 2.375,-1 5.125,-2 2.75,-1.0625 5.375,-1.875 -2.125,-0.625 -4.1875,-1.5 -2,-0.9375 -4.0625,-1.6875 -2,-0.8125 -4.0625,-1.375 -2,-0.5625 -4.0625,-0.5625 -1.375,0 -2.6875,0.25 -1.3125,0.25 -2.4375,0.5625 -1.0625,0.25 -1.8125,0.5 -0.6875,0.25 -0.875,0.25 -0.375,0 -0.375,-0.5 0,-0.6875 0.4375,-1.6875 0.4375,-1.0625 1.125,-2.125 0.75,-1.125 1.6875,-2.1875 0.9375,-1.0625 2,-1.8125 1.375,-1 2.75,-1.25 1.4375,-0.3125 3.625,-0.3125 1.6875,0 3.6875,0.6875 2.0625,0.6875 4.1875,1.625 2.1875,0.9375 4.3125,2 2.125,1 3.9375,1.75 3.3125,1.3125 7.625,2.125 4.375,0.75 9.25,1 3,0.125 5,0.1875 2.0625,0.0625 2.0625,0.25 z m -18.4375,29.3125 q 0,0.25 -0.5625,1.1875 -0.5625,1 -1.3125,2.0625 -0.6875,1.125 -1.375,2 -0.625,0.875 -0.875,0.875 -0.125,0 -1,-0.625 -0.8125,-0.5625 -1.8125,-1.3125 -1.125,-0.8125 -2.5625,-1.9375 -0.25,-0.25 -0.4375,-0.25 -0.1875,0 -0.4375,0.375 -1,1.375 -1.75,2.4375 -0.6875,0.9375 -1.3125,1.6875 -0.625,0.75 -0.8125,0.75 -0.125,0 -1.0625,-0.625 -0.875,-0.5625 -1.9375,-1.375 -1,-0.75 -1.8125,-1.4375 -0.8125,-0.6875 -0.8125,-0.875 0,-0.1875 0.5625,-1.1875 0.625,-1 1.375,-2.0625 0.75,-1.0625 1.375,-1.9375 0.6875,-0.875 0.8125,-0.875 0.3125,0 1.125,0.5625 0.8125,0.625 1.75,1.3125 l 2.375,1.875 q 0.4375,0.3125 0.5,0.3125 0.125,0 0.5,-0.4375 l 1.75,-2.375 q 0.6875,-0.875 1.25,-1.625 0.625,-0.75 0.875,-0.75 0.25,0 1.125,0.5625 0.9375,0.625 1.9375,1.375 1,0.75 1.75,1.4375 0.8125,0.6875 0.8125,0.875 z m -4.375,12.375 q 0,0.1875 -0.5625,1.125 -0.5625,1 -1.25,2.0625 -0.6875,1.0625 -1.4375,1.9375 -0.6875,0.875 -0.9375,0.875 -0.1875,0 -1.125,-0.5625 -0.875,-0.5625 -1.9375,-1.3125 -1,-0.6875 -1.8125,-1.375 -0.8125,-0.6875 -0.8125,-0.9375 0,-0.25 0.5625,-1.25 0.625,-0.9375 1.375,-2.0625 0.75,-1.0625 1.4375,-1.9375 0.6875,-0.875 0.875,-0.875 0.25,0 1.125,0.5625 0.9375,0.625 1.9375,1.375 1,0.8125 1.75,1.5 0.8125,0.6875 0.8125,0.875 z"
           style="font-style:normal;font-variant:normal;font-weight:normal;font-stretch:normal;font-size:128px;line-height:0.60000002;font-family:Scheherazade;-inkscape-font-specification:Scheherazade;fill:#ffffff"
           id="path76" />
        <path
           d="m 172.96484,266.2155 q 0,0.75 -0.125,1.4375 -0.0625,0.6875 -0.4375,1.25 -0.3125,0.5625 -1,0.9375 -0.6875,0.3125 -1.875,0.3125 h -2.4375 q -1.75,0 -2.9375,-0.5625 -1.1875,-0.5625 -2.1875,-1.625 -0.6875,-0.75 -1.5,-2 -0.8125,-1.3125 -1.3125,-2.4375 -1.125,1.25 -2.25,2.4375 -1.125,1.1875 -2.5,2.125 -1.375,0.9375 -3.125,1.5 -1.6875,0.5625 -4,0.5625 h -2.3125 q -1.1875,0 -1.875,-0.3125 -0.6875,-0.375 -1,-0.9375 -0.375,-0.5625 -0.4375,-1.25 -0.125,-0.6875 -0.125,-1.4375 0,-0.75 0.125,-1.4375 0.0625,-0.6875 0.4375,-1.1875 0.3125,-0.5625 1,-0.875 0.6875,-0.375 1.875,-0.375 h 2.3125 q 2.8125,0 4.875,-0.5625 2.0625,-0.625 3.5,-1.5625 1.5,-0.9375 2.4375,-1.9375 1,-1.0625 1.625,-2 0.625,-0.9375 1,-1.5 0.4375,-0.625 0.75,-0.625 0.375,0 0.5,1.0625 0.125,1.0625 0.625,2.375 0.25,0.75 0.625,1.625 0.4375,0.8125 0.9375,1.5625 0.5625,0.6875 1.25,1.125 0.75,0.4375 1.6875,0.4375 h 2.4375 q 1.1875,0 1.875,0.375 0.6875,0.3125 1,0.875 0.375,0.5 0.4375,1.1875 0.125,0.6875 0.125,1.4375 z m -5.875,14.5 q 0,0.25 -0.5625,1.25 -0.5625,1 -1.3125,2.0625 -0.6875,1.125 -1.375,2 -0.625,0.875 -0.875,0.875 -0.125,0 -1,-0.625 -0.8125,-0.5625 -1.8125,-1.3125 -1.125,-0.8125 -2.5625,-1.9375 -0.25,-0.25 -0.4375,-0.25 -0.1875,0 -0.4375,0.25 -0.9375,1.375 -1.6875,2.4375 -0.6875,0.9375 -1.3125,1.6875 -0.5625,0.75 -0.75,0.75 -0.1875,0 -1.125,-0.625 -0.875,-0.5625 -1.875,-1.3125 -1,-0.75 -1.8125,-1.4375 -0.8125,-0.6875 -0.8125,-0.875 0,-0.25 0.5625,-1.25 0.625,-0.9375 1.375,-2.0625 0.75,-1.0625 1.375,-1.9375 0.6875,-0.875 0.8125,-0.875 0.3125,0 1.125,0.625 0.8125,0.625 1.6875,1.3125 1.0625,0.8125 2.3125,1.875 0.375,0.375 0.5625,0.375 0.1875,0 0.4375,-0.5 0.9375,-1.3125 1.75,-2.375 0.6875,-0.875 1.3125,-1.6875 0.625,-0.75 0.75,-0.75 0.1875,0 1.125,0.625 0.9375,0.625 1.9375,1.375 1,0.8125 1.8125,1.5 0.8125,0.6875 0.8125,0.8125 z"
           style="font-style:normal;font-variant:normal;font-weight:normal;font-stretch:normal;font-size:128px;line-height:0.60000002;font-family:Scheherazade;-inkscape-font-specification:Scheherazade;fill:#ffffff"
           id="path78" />
        <path
           d="m 149.77734,266.2155 q 0,0.75 -0.125,1.4375 -0.0625,0.6875 -0.4375,1.25 -0.3125,0.5625 -1,0.9375 -0.6875,0.3125 -1.875,0.3125 h -2.3125 q -3.3125,0 -5.875,-2.75 -2.5625,-2.8125 -4.375,-7.125 -0.875,1.8125 -1.8125,3.3125 -0.875,1.5 -2.0625,2.625 -1.125,1.125 -2.5625,1.75 -1.375,0.625 -3.125,0.625 -1.6875,0 -2.875,-0.4375 -1.125,-0.4375 -1.9375,-1.1875 -0.8125,-0.75 -1.375,-1.75 -0.5,-1 -0.875,-2.125 -2.375,3.3125 -5.3125,5.125 -2.875,1.8125 -7.5,1.8125 -3,0 -5.374996,-1.4375 -2.3125,-1.5 -3.9375,-4.9375 -2.375,3.5625 -5.3125,5.0625 -2.9375,1.4375 -6.1875,1.4375 h -2.3125 q -1.1875,0 -1.875,-0.3125 -0.6875,-0.375 -1,-0.9375 -0.375,-0.5625 -0.4375,-1.25 -0.125,-0.6875 -0.125,-1.4375 0,-0.75 0.125,-1.4375 0.0625,-0.6875 0.4375,-1.1875 0.3125,-0.5625 1,-0.875 0.6875,-0.375 1.875,-0.375 h 2.3125 q 2.75,0 4.75,-0.625 2,-0.625 3.4375,-1.5 1.4375,-0.9375 2.375,-2 0.9375,-1.125 1.5625,-2 0.6875,-0.9375 1.125,-1.5625 0.4375,-0.625 0.8125,-0.625 0.4375,0 0.5625,0.625 0.125,0.5625 0.25,1.5 0.1875,0.875 0.4375,1.9375 0.3125,1 1,1.9375 0.749996,0.875 1.999996,1.5 1.3125,0.5625 3.4375,0.5625 2.8125,0 4.9375,-0.6875 2.125,-0.6875 3.625,-1.75 1.5625,-1.0625 2.625,-2.25 1.0625,-1.1875 1.75,-2.25 0.75,-1.0625 1.125,-1.75 0.4375,-0.6875 0.75,-0.6875 0.1875,0 0.5625,0.375 0.375,0.375 0.375,1.3125 0,0.875 0.1875,1.8125 0.1875,0.9375 0.75,1.6875 0.5625,0.75 1.5,1.25 1,0.5 2.5625,0.5 2.25,0 3.625,-1.125 1.4375,-1.125 2.3125,-2.4375 0.875,-1.375 1.3125,-2.5 0.4375,-1.125 0.8125,-1.125 0.375,0 0.5625,0.375 0.1875,0.3125 0.4375,1.0625 0.3125,1.0625 1,2.5 0.6875,1.4375 1.75,2.75 1.125,1.3125 2.625,2.25 1.5625,0.9375 3.5625,0.9375 h 2.3125 q 1.1875,0 1.875,0.375 0.6875,0.3125 1,0.875 0.375,0.5 0.4375,1.1875 0.125,0.6875 0.125,1.4375 z"
           style="font-style:normal;font-variant:normal;font-weight:normal;font-stretch:normal;font-size:128px;line-height:0.60000002;font-family:Scheherazade;-inkscape-font-specification:Scheherazade;fill:#ffffff"
           id="path80" />
        <path
           d="m 86.089844,266.2155 q 0,0.75 -0.0625,1.4375 -0.0625,0.6875 -0.375,1.25 -0.3125,0.5625 -0.9375,0.9375 -0.5625,0.3125 -1.625,0.3125 h -2.5 q -2,0 -3.5625,-0.125 -1.5625,-0.1875 -2.875,-0.75 -1.25,-0.625 -2.3125,-1.75 -1.0625,-1.125 -2,-3.125 -2.0625,2.375 -6.1875,4.375 -4.125,1.9375 -9.75,3.375 -5.625,1.5 -12.5625,2.3125 -6.875,0.8125 -14.5,0.8125 -5.5,0 -10.25,-1 -4.75,-1 -8.3125002,-3.125 -3.5000001,-2.0625 -5.5625,-5.25 -2.00000005,-3.1875 -2.00000005,-7.625 0,-2.4375 0.62499995,-4.875 0.6875001,-2.5 1.5000001,-4.5 0.875,-2 1.6874999,-3.25 0.8125,-1.25 1.0625,-1.25 0.1875,0 0.5,0.1875 0.375,0.1875 0.375,0.625 0,0.25 -0.375,1.0625 -0.375,0.75 -0.875,1.8125 -0.4375,1.0625 -0.8125,2.375 -0.375,1.3125 -0.375,2.5625 0,3.1875 1.875,5.75 1.9375,2.5625 5.4375003,4.3125 3.5625,1.75 8.5,2.6875 4.9375,0.9375 11.0625,0.9375 5.25,0 10.6875,-0.375 5.4375,-0.4375 10.375,-1.25 4.9375,-0.875 8.9375,-2.1875 4.0625,-1.375 6.5,-3.25 1.25,-0.9375 1.6875,-1.875 0.4375,-0.9375 1,-0.9375 0.125,0 0.25,0.5 0.1875,0.4375 0.4375,1.125 0.3125,0.625 0.75,1.3125 0.4375,0.6875 1.125,1.1875 0.625,0.5 1.5,0.75 0.9375,0.25 2,0.4375 1.0625,0.125 2.1875,0.1875 1.125,0 2.25,0 h 2.5 q 1.0625,0 1.625,0.375 0.625,0.3125 0.9375,0.875 0.3125,0.5 0.375,1.1875 0.0625,0.6875 0.0625,1.4375 z m -39.9375,-25.125 q 0,0.25 -0.5625,1.25 -0.5625,1 -1.3125,2.125 -0.6875,1.0625 -1.375,1.9375 -0.625,0.875 -0.875,0.875 -0.125,0 -1,-0.5625 -0.8125,-0.625 -1.8125,-1.375 -1.125,-0.8125 -2.5625,-1.9375 -0.25,-0.25 -0.4375,-0.25 -0.1875,0 -0.4375,0.25 -0.9375,1.375 -1.6875,2.4375 -0.6875,0.9375 -1.3125,1.6875 -0.5625,0.75 -0.75,0.75 -0.1875,0 -1.125,-0.5625 -0.875,-0.625 -1.875,-1.375 -1,-0.75 -1.8125,-1.4375 -0.8125,-0.6875 -0.8125,-0.875 0,-0.25 0.5625,-1.1875 0.625,-1 1.375,-2.0625 0.75,-1.125 1.375,-2 0.6875,-0.875 0.8125,-0.875 0.3125,0 1.125,0.625 0.8125,0.625 1.6875,1.3125 1.0625,0.8125 2.3125,1.875 0.375,0.375 0.5625,0.375 0.1875,0 0.4375,-0.5 0.9375,-1.3125 1.75,-2.375 0.6875,-0.875 1.3125,-1.625 0.625,-0.8125 0.75,-0.8125 0.1875,0 1.125,0.625 0.9375,0.625 1.9375,1.4375 1,0.75 1.8125,1.4375 0.8125,0.6875 0.8125,0.8125 z"
           style="font-style:normal;font-variant:normal;font-weight:normal;font-stretch:normal;font-size:128px;line-height:0.60000002;font-family:Scheherazade;-inkscape-font-specification:Scheherazade;fill:#ffffff"
           id="path82" />
      </g>
      <g
         aria-label="؟"
         style="font-style:normal;font-weight:normal;font-size:155.51637268px;line-height:1.25;font-family:sans-serif;letter-spacing:0px;word-spacing:0px;fill:#ffffff;fill-opacity:1;stroke:none;stroke-width:0.51838791"
         id="text78">
        <path
           d="m 29.984384,112.61102 q 0,1.74956 -0.534587,3.11032 -0.485989,1.31217 -1.31217,2.28415 -0.82618,0.92338 -1.943954,1.40937 -1.069175,0.48599 -2.284147,0.48599 -1.70096,0 -2.818734,-1.21497 -1.069175,-1.26358 -1.069175,-2.96454 0,-1.45796 0.777581,-2.28414 0.826181,-0.87478 1.74956,-1.55517 0.971977,-0.72898 1.749559,-1.50656 0.826181,-0.77758 0.826181,-2.04115 0,-1.02058 -0.485989,-1.79816 -0.43739,-0.82618 -1.166373,-1.31217 -0.728983,-0.53459 -1.652361,-0.77758 -0.923379,-0.2916 -1.895356,-0.2916 -1.409367,0 -2.721537,0.48599 -1.26357,0.48599 -2.235548,1.40937 -0.971977,0.87478 -1.603762,2.13835 -0.583187,1.26357 -0.583187,2.77014 0,1.40936 0.583187,2.91593 0.631785,1.50656 1.555164,3.25612 0.971977,1.70096 2.041152,3.69352 1.069175,1.94395 1.992554,4.2767 0.971977,2.28414 1.555163,5.00568 0.631786,2.72154 0.631786,5.92906 0,1.55516 -0.0972,2.38135 -0.0486,0.82618 -0.291593,1.79815 -0.194396,0.68039 -0.388791,0.77759 -0.194396,0.0972 -0.728983,0.0972 -0.583187,0 -0.728983,-0.29159 -0.145797,-0.29159 -0.145797,-0.68038 0,-0.243 0,-0.68039 0.0486,-0.43739 0.0972,-0.87478 0.0486,-0.43739 0.0486,-0.82618 0.0486,-0.38879 0.0486,-0.53459 0,-1.84675 -0.340193,-3.01313 -0.340192,-1.16637 -0.971977,-2.04115 -0.631785,-0.92338 -1.555164,-1.70096 -0.923378,-0.82618 -2.089751,-1.94395 -1.555164,-1.45797 -2.915932,-2.81874 -1.3607682,-1.36077 -2.3813444,-2.91593 -1.0205762,-1.60376 -1.6037626,-3.49912 -0.5831864,-1.89535 -0.5831864,-4.3739 0,-2.67293 1.0205762,-5.05428 1.0691751,-2.38134 2.8187342,-4.1309 1.798158,-1.79816 4.130904,-2.81874 2.332745,-1.02057 4.957084,-1.02057 2.332746,0 4.228102,0.92338 1.943954,0.87478 3.353321,2.38134 1.409368,1.50656 2.186949,3.45052 0.777582,1.89536 0.777582,3.98511 z m -6.366451,35.96316 q 0,0.87478 -0.340192,1.60376 -0.340192,0.77758 -0.923379,1.31217 -0.583186,0.58319 -1.360768,0.92338 -0.777582,0.34019 -1.652362,0.34019 -0.874779,0 -1.652361,-0.34019 -0.777582,-0.34019 -1.360768,-0.92338 -0.583187,-0.53459 -0.923379,-1.31217 -0.340192,-0.72898 -0.340192,-1.60376 0,-1.79816 1.214972,-3.01313 1.26357,-1.26357 3.061728,-1.26357 0.87478,0 1.652362,0.34019 0.777582,0.34019 1.360768,0.92338 0.583187,0.58318 0.923379,1.36077 0.340192,0.77758 0.340192,1.65236 z"
           style="font-style:normal;font-variant:normal;font-weight:normal;font-stretch:normal;font-size:99.53047943px;font-family:Scheherazade;-inkscape-font-specification:Scheherazade;fill:#ffffff;stroke-width:0.51838791"
           id="path85" />
      </g>
    </g>
    <g
       id="g64"
       transform="translate(2.6212759,129.67174)">
      <g
         aria-label="مسیحیت چیست"
         transform="matrix(0.46323585,0,0,0.46323585,33.45417,24.400632)"
         style="font-style:normal;font-weight:normal;font-size:40px;line-height:0.80000001;font-family:sans-serif;letter-spacing:0px;word-spacing:0px;fill:#000080;fill-opacity:1;stroke:none"
         id="flowRoot10">
        <path
           d="m 214.99609,182.80613 q 0,0.60937 -0.375,1.64062 -0.375,1.03125 -0.98437,2.01563 -0.5625,0.98437 -1.26563,1.6875 -0.70312,0.70312 -1.3125,0.70312 -0.75,0 -1.92187,-0.375 -1.125,-0.375 -2.4375,-0.98437 -1.26563,-0.60938 -2.57813,-1.3125 -1.26562,-0.70313 -2.29687,-1.35938 -0.84375,0.98438 -1.64063,2.0625 -0.79687,1.07813 -1.59375,2.0625 -0.75,0.98438 -1.54687,1.82813 -0.75,0.84375 -1.54688,1.40625 -0.75,0.51562 -1.40625,0.84375 -0.60937,0.32812 -1.26562,0.32812 h -1.73438 q -0.89062,0 -1.40625,-0.23437 -0.51562,-0.28125 -0.75,-0.70313 -0.28125,-0.42187 -0.32812,-0.9375 -0.0937,-0.51562 -0.0937,-1.07812 0,-0.5625 0.0937,-1.07813 0.0469,-0.51562 0.32812,-0.89062 0.23438,-0.42188 0.75,-0.65625 0.51563,-0.28125 1.40625,-0.28125 h 1.73438 q 2.01562,0 3.51562,-0.89063 1.5,-0.9375 2.67188,-2.34375 1.21875,-1.45312 2.20312,-3.23437 0.98438,-1.78125 1.96875,-3.51563 0.65625,-1.125 1.26563,-2.10937 0.65625,-1.03125 1.35937,-1.82813 0.70313,-0.79687 1.45313,-1.26562 0.75,-0.46875 1.6875,-0.46875 1.07812,0 1.82812,0.42187 0.79688,0.42188 1.5,1.59375 0.5625,0.98438 1.07813,2.25 0.51562,1.21875 0.84375,2.48438 0.375,1.26562 0.5625,2.39062 0.23437,1.125 0.23437,1.82813 z m -4.92187,-2.10938 q 0,-0.51562 -0.28125,-1.125 -0.23438,-0.60937 -0.70313,-1.125 -0.42187,-0.5625 -0.98437,-0.9375 -0.5625,-0.375 -1.17188,-0.375 -0.9375,0 -1.59375,0.65625 -0.60937,0.65625 -0.60937,1.45313 0,0.14062 0.0937,0.32812 0.0937,0.1875 0.46875,0.42188 0.46875,0.28125 1.125,0.51562 0.70312,0.23438 1.35937,0.42188 0.65625,0.1875 1.17188,0.32812 0.51562,0.0937 0.65625,0.0937 0.46875,0 0.46875,-0.65625 z"
           style="font-style:normal;font-variant:normal;font-weight:normal;font-stretch:normal;font-size:96px;line-height:0.60000002;font-family:Scheherazade;-inkscape-font-specification:Scheherazade;fill:#000080"
           id="path40" />
        <path
           d="m 194.69922,190.39988 q 0,0.5625 -0.0937,1.07812 -0.0469,0.51563 -0.32813,0.9375 -0.23437,0.42188 -0.75,0.70313 -0.51562,0.23437 -1.40625,0.23437 h -1.73437 q -2.48438,0 -4.40625,-2.0625 -1.92188,-2.10937 -3.28125,-5.34375 -0.65625,1.35938 -1.35938,2.48438 -0.65625,1.125 -1.54687,1.96875 -0.84375,0.84375 -1.92188,1.3125 -1.03125,0.46875 -2.34375,0.46875 -1.26562,0 -2.15625,-0.32813 -0.84375,-0.32812 -1.45312,-0.89062 -0.60938,-0.5625 -1.03125,-1.3125 -0.375,-0.75 -0.65625,-1.59375 -1.78125,2.48437 -3.98438,3.84375 -2.15625,1.35937 -5.625,1.35937 -2.25,0 -4.03125,-1.07812 -1.73437,-1.125 -2.95312,-3.70313 -1.78125,2.67188 -3.98438,3.79688 -2.20312,1.07812 -4.64062,1.07812 h -1.73438 q -0.89062,0 -1.40625,-0.23437 -0.51562,-0.28125 -0.75,-0.70313 -0.28125,-0.42187 -0.32812,-0.9375 -0.0937,-0.51562 -0.0937,-1.07812 0,-0.5625 0.0937,-1.07813 0.0469,-0.51562 0.32812,-0.89062 0.23438,-0.42188 0.75,-0.65625 0.51563,-0.28125 1.40625,-0.28125 h 1.73438 q 2.0625,0 3.5625,-0.46875 1.5,-0.46875 2.57812,-1.125 1.07813,-0.70313 1.78125,-1.5 0.70313,-0.84375 1.17188,-1.5 0.51562,-0.70313 0.84375,-1.17188 0.32812,-0.46875 0.60937,-0.46875 0.32813,0 0.42188,0.46875 0.0937,0.42188 0.1875,1.125 0.14062,0.65625 0.32812,1.45313 0.23438,0.75 0.75,1.45312 0.5625,0.65625 1.5,1.125 0.98438,0.42188 2.57813,0.42188 2.10937,0 3.70312,-0.51563 1.59375,-0.51562 2.71875,-1.3125 1.17188,-0.79687 1.96875,-1.6875 0.79688,-0.89062 1.3125,-1.6875 0.5625,-0.79687 0.84375,-1.3125 0.32813,-0.51562 0.5625,-0.51562 0.14063,0 0.42188,0.28125 0.28125,0.28125 0.28125,0.98437 0,0.65625 0.14062,1.35938 0.14063,0.70312 0.5625,1.26562 0.42188,0.5625 1.125,0.9375 0.75,0.375 1.92188,0.375 1.6875,0 2.71875,-0.84375 1.07812,-0.84375 1.73437,-1.82812 0.65625,-1.03125 0.98438,-1.875 0.32812,-0.84375 0.60937,-0.84375 0.28125,0 0.42188,0.28125 0.14062,0.23437 0.32812,0.79687 0.23438,0.79688 0.75,1.875 0.51563,1.07813 1.3125,2.0625 0.84375,0.98438 1.96875,1.6875 1.17188,0.70313 2.67188,0.70313 h 1.73437 q 0.89063,0 1.40625,0.28125 0.51563,0.23437 0.75,0.65625 0.28125,0.375 0.32813,0.89062 0.0937,0.51563 0.0937,1.07813 z"
           style="font-style:normal;font-variant:normal;font-weight:normal;font-stretch:normal;font-size:96px;line-height:0.60000002;font-family:Scheherazade;-inkscape-font-specification:Scheherazade;fill:#000080"
           id="path42" />
        <path
           d="m 147.02734,190.39988 q 0,0.5625 -0.0937,1.07812 -0.0469,0.51563 -0.32812,0.9375 -0.23438,0.42188 -0.75,0.70313 -0.51563,0.23437 -1.40625,0.23437 h -1.82813 q -1.3125,0 -2.20312,-0.42187 -0.89063,-0.42188 -1.64063,-1.21875 -0.51562,-0.5625 -1.125,-1.5 -0.60937,-0.98438 -0.98437,-1.82813 -0.84375,0.9375 -1.6875,1.82813 -0.84375,0.89062 -1.875,1.59375 -1.03125,0.70312 -2.34375,1.125 -1.26563,0.42187 -3,0.42187 h -1.73438 q -0.89062,0 -1.40625,-0.23437 -0.51562,-0.28125 -0.75,-0.70313 -0.28125,-0.42187 -0.32812,-0.9375 -0.0937,-0.51562 -0.0937,-1.07812 0,-0.5625 0.0937,-1.07813 0.0469,-0.51562 0.32812,-0.89062 0.23438,-0.42188 0.75,-0.65625 0.51563,-0.28125 1.40625,-0.28125 h 1.73438 q 2.10937,0 3.65625,-0.42188 1.54687,-0.46875 2.625,-1.17187 1.125,-0.70313 1.82812,-1.45313 0.75,-0.79687 1.21875,-1.5 0.46875,-0.70312 0.75,-1.125 0.32813,-0.46875 0.5625,-0.46875 0.28125,0 0.375,0.79688 0.0937,0.79687 0.46875,1.78125 0.1875,0.5625 0.46875,1.21875 0.32813,0.60937 0.70313,1.17187 0.42187,0.51563 0.9375,0.84375 0.5625,0.32813 1.26562,0.32813 h 1.82813 q 0.89062,0 1.40625,0.28125 0.51562,0.23437 0.75,0.65625 0.28125,0.375 0.32812,0.89062 0.0937,0.51563 0.0937,1.07813 z m -4.40625,10.875 q 0,0.1875 -0.42187,0.9375 -0.42188,0.75 -0.98438,1.54687 -0.51562,0.84375 -1.03125,1.5 -0.46875,0.65625 -0.65625,0.65625 -0.0937,0 -0.75,-0.46875 -0.60937,-0.42187 -1.35937,-0.98437 -0.84375,-0.60938 -1.92188,-1.45313 -0.1875,-0.1875 -0.32812,-0.1875 -0.14063,0 -0.32813,0.1875 -0.70312,1.03125 -1.26562,1.82813 -0.51563,0.70312 -0.98438,1.26562 -0.42187,0.5625 -0.5625,0.5625 -0.14062,0 -0.84375,-0.46875 -0.65625,-0.42187 -1.40625,-0.98437 -0.75,-0.5625 -1.35937,-1.07813 -0.60938,-0.51562 -0.60938,-0.65625 0,-0.1875 0.42188,-0.9375 0.46875,-0.70312 1.03125,-1.54687 0.5625,-0.79688 1.03125,-1.45313 0.51562,-0.65625 0.60937,-0.65625 0.23438,0 0.84375,0.46875 0.60938,0.46875 1.26563,0.98438 0.79687,0.60937 1.73437,1.40625 0.28125,0.28125 0.42188,0.28125 0.14062,0 0.32812,-0.375 0.70313,-0.98438 1.3125,-1.78125 0.51563,-0.65625 0.98438,-1.26563 0.46875,-0.5625 0.5625,-0.5625 0.14062,0 0.84375,0.46875 0.70312,0.46875 1.45312,1.03125 0.75,0.60938 1.35938,1.125 0.60937,0.51563 0.60937,0.60938 z"
           style="font-style:normal;font-variant:normal;font-weight:normal;font-stretch:normal;font-size:96px;line-height:0.60000002;font-family:Scheherazade;-inkscape-font-specification:Scheherazade;fill:#000080"
           id="path44" />
        <path
           d="m 129.77734,190.39988 q 0,0.5625 -0.0937,1.07812 -0.0469,0.51563 -0.32812,0.9375 -0.23438,0.42188 -0.75,0.70313 -0.51563,0.23437 -1.40625,0.23437 h -1.73438 q -5.85937,0 -9.32812,-0.375 -3.46875,-0.42187 -5.10938,-1.54687 -1.03125,-0.70313 -1.45312,-1.6875 -0.42188,-1.03125 -0.42188,-2.4375 0,-0.9375 0.1875,-1.82813 0.23438,-0.89062 0.46875,-1.92187 h -0.84375 q -2.76562,0 -5.0625,0.42187 -2.29687,0.375 -4.312496,1.07813 -1.96875,0.65625 -3.75,1.5 -1.734375,0.84375 -3.328125,1.73437 -1.6875,0.9375 -3.28125,1.875 -1.546875,0.89063 -3.234375,1.59375 -1.640625,0.70313 -3.421875,1.17188 -1.734375,0.42187 -3.75,0.42187 h -1.734375 q -0.890625,0 -1.40625,-0.23437 -0.515625,-0.28125 -0.75,-0.70313 -0.28125,-0.42187 -0.328125,-0.9375 -0.09375,-0.51562 -0.09375,-1.07812 0,-0.5625 0.09375,-1.07813 0.04687,-0.51562 0.328125,-0.89062 0.234375,-0.42188 0.75,-0.65625 0.515625,-0.28125 1.40625,-0.28125 h 1.734375 q 2.296875,0 4.21875,-0.23438 1.96875,-0.28125 3.65625,-0.70312 1.6875,-0.46875 3.140625,-0.98438 1.5,-0.5625 2.859375,-1.125 1.6875,-0.70312 3.328125,-1.3125 1.640625,-0.65625 3.421875,-1.03125 -0.984375,-0.375 -2.484375,-1.03125 -1.5,-0.70312 -3.28125,-1.3125 -1.78125,-0.65625 -3.75,-1.125 -1.96875,-0.46875 -3.84375,-0.46875 -0.984375,0 -1.828125,0.1875 -0.84375,0.14063 -1.5,0.375 -0.609375,0.1875 -1.03125,0.375 -0.375,0.14063 -0.421875,0.14063 -0.375,0 -0.375,-0.28125 0,-1.03125 0.421875,-1.92188 0.421875,-0.9375 1.078125,-1.73437 0.65625,-0.79688 1.453125,-1.40625 0.84375,-0.65625 1.640625,-1.07813 0.9375,-0.51562 2.0625,-0.65625 1.125,-0.14062 1.78125,-0.14062 1.453125,0 3.375,0.70312 1.96875,0.70313 4.03125,1.64063 2.0625,0.89062 4.124996,1.78125 2.0625,0.89062 3.70313,1.26562 1.875,0.42188 3.46875,0.70313 1.59375,0.23437 3.32812,0.375 1.73438,0.14062 3.75,0.1875 2.0625,0 4.82813,0 0.14062,0 0.1875,0.14062 0.0937,0.14063 0.0937,0.23438 0,0.0937 -0.14063,0.65625 -0.14062,0.51562 -0.32812,1.21875 -0.1875,0.65625 -0.375,1.3125 -0.1875,0.65625 -0.28125,0.9375 -0.0937,0.32812 -1.82813,0.42187 -1.73437,0.0469 -5.01562,0.0469 -0.0469,0.0937 -0.0469,0.28125 0,0.1875 0,0.32812 0,0.65625 0.51563,1.17188 0.51562,0.51562 1.3125,0.89062 1.03125,0.42188 2.48437,0.70313 1.45313,0.23437 3,0.32812 1.54688,0.0937 3.09375,0.14063 1.54688,0 2.8125,0 h 1.73438 q 0.89062,0 1.40625,0.28125 0.51562,0.23437 0.75,0.65625 0.28125,0.375 0.32812,0.89062 0.0937,0.51563 0.0937,1.07813 z"
           style="font-style:normal;font-variant:normal;font-weight:normal;font-stretch:normal;font-size:96px;line-height:0.60000002;font-family:Scheherazade;-inkscape-font-specification:Scheherazade;fill:#000080"
           id="path46" />
        <path
           d="m 80.839844,190.39988 q 0,0.5625 -0.09375,1.07812 -0.04687,0.51563 -0.328125,0.9375 -0.234375,0.42188 -0.75,0.70313 -0.515625,0.23437 -1.40625,0.23437 h -1.828125 q -1.3125,0 -2.203125,-0.42187 -0.890625,-0.42188 -1.640625,-1.21875 -0.515625,-0.5625 -1.125,-1.5 -0.609375,-0.98438 -0.984375,-1.82813 -0.84375,0.9375 -1.6875,1.82813 -0.84375,0.89062 -1.875,1.59375 -1.03125,0.70312 -2.34375,1.125 -1.265625,0.42187 -3,0.42187 h -1.734375 q -0.890625,0 -1.40625,-0.23437 -0.515625,-0.28125 -0.75,-0.70313 -0.28125,-0.42187 -0.328125,-0.9375 -0.09375,-0.51562 -0.09375,-1.07812 0,-0.5625 0.09375,-1.07813 0.04687,-0.51562 0.328125,-0.89062 0.234375,-0.42188 0.75,-0.65625 0.515625,-0.28125 1.40625,-0.28125 h 1.734375 q 2.109375,0 3.65625,-0.42188 1.546875,-0.46875 2.625,-1.17187 1.125,-0.70313 1.828125,-1.45313 0.75,-0.79687 1.21875,-1.5 0.46875,-0.70312 0.75,-1.125 0.328125,-0.46875 0.5625,-0.46875 0.28125,0 0.375,0.79688 0.09375,0.79687 0.46875,1.78125 0.1875,0.5625 0.46875,1.21875 0.328125,0.60937 0.703125,1.17187 0.421875,0.51563 0.9375,0.84375 0.5625,0.32813 1.265625,0.32813 h 1.828125 q 0.890625,0 1.40625,0.28125 0.515625,0.23437 0.75,0.65625 0.28125,0.375 0.328125,0.89062 0.09375,0.51563 0.09375,1.07813 z m -4.40625,10.875 q 0,0.1875 -0.421875,0.9375 -0.421875,0.75 -0.984375,1.54687 -0.515625,0.84375 -1.03125,1.5 -0.46875,0.65625 -0.65625,0.65625 -0.09375,0 -0.75,-0.46875 -0.609375,-0.42187 -1.359375,-0.98437 -0.84375,-0.60938 -1.921875,-1.45313 -0.1875,-0.1875 -0.328125,-0.1875 -0.140625,0 -0.328125,0.1875 -0.703125,1.03125 -1.265625,1.82813 -0.515625,0.70312 -0.984375,1.26562 -0.421875,0.5625 -0.5625,0.5625 -0.140625,0 -0.84375,-0.46875 -0.65625,-0.42187 -1.40625,-0.98437 -0.75,-0.5625 -1.359375,-1.07813 -0.609375,-0.51562 -0.609375,-0.65625 0,-0.1875 0.421875,-0.9375 0.46875,-0.70312 1.03125,-1.54687 0.5625,-0.79688 1.03125,-1.45313 0.515625,-0.65625 0.609375,-0.65625 0.234375,0 0.84375,0.46875 0.609375,0.46875 1.265625,0.98438 0.796875,0.60937 1.734375,1.40625 0.28125,0.28125 0.421875,0.28125 0.140625,0 0.328125,-0.375 0.703125,-0.98438 1.3125,-1.78125 0.515625,-0.65625 0.984375,-1.26563 0.46875,-0.5625 0.5625,-0.5625 0.140625,0 0.84375,0.46875 0.703125,0.46875 1.453125,1.03125 0.75,0.60938 1.359375,1.125 0.609375,0.51563 0.609375,0.60938 z"
           style="font-style:normal;font-variant:normal;font-weight:normal;font-stretch:normal;font-size:96px;line-height:0.60000002;font-family:Scheherazade;-inkscape-font-specification:Scheherazade;fill:#000080"
           id="path48" />
        <path
           d="m 63.496094,190.39988 q 0,0.5625 -0.04687,1.07812 -0.04687,0.51563 -0.28125,0.9375 -0.234375,0.42188 -0.703125,0.70313 -0.421875,0.23437 -1.21875,0.23437 h -1.875 q -1.5,0 -2.671875,-0.0937 -1.171875,-0.14062 -2.15625,-0.5625 -0.9375,-0.46875 -1.734375,-1.3125 -0.796875,-0.84375 -1.5,-2.34375 -1.546875,1.78125 -4.640625,3.28125 -3.09375,1.45313 -7.3125,2.53125 -4.21875,1.125 -9.421875,1.73438 -5.15625,0.60937 -10.875,0.60937 -4.125,0 -7.6875,-0.75 -3.5625003,-0.75 -6.2343753,-2.34375 -2.6249999,-1.54687 -4.17187495,-3.9375 -1.5,-2.39062 -1.5,-5.71875 0,-1.82812 0.46875,-3.65625 0.515625,-1.875 1.12499995,-3.375 0.65625,-1.5 1.2656251,-2.4375 0.609375,-0.9375 0.796875,-0.9375 0.140625,0 0.375,0.14063 0.28125,0.14062 0.28125,0.46875 0,0.1875 -0.28125,0.79687 -0.28125,0.5625 -0.65625,1.35938 -0.328125,0.79687 -0.609375,1.78125 -0.2812501,0.98437 -0.2812501,1.92187 0,2.39063 1.4062501,4.3125 1.4531249,1.92188 4.0781249,3.23438 2.6718753,1.3125 6.3750003,2.01562 3.703125,0.70313 8.296875,0.70313 3.9375,0 8.015625,-0.28125 4.078125,-0.32813 7.78125,-0.9375 3.703125,-0.65625 6.703125,-1.64063 3.046875,-1.03125 4.875,-2.4375 0.9375,-0.70312 1.265625,-1.40625 0.328125,-0.70312 0.75,-0.70312 0.09375,0 0.1875,0.375 0.140625,0.32812 0.328125,0.84375 0.234375,0.46875 0.5625,0.98437 0.328125,0.51563 0.84375,0.89063 0.46875,0.375 1.125,0.5625 0.703125,0.1875 1.5,0.32812 0.796875,0.0937 1.640625,0.14063 0.84375,0 1.6875,0 h 1.875 q 0.796875,0 1.21875,0.28125 0.46875,0.23437 0.703125,0.65625 0.234375,0.375 0.28125,0.89062 0.04687,0.51563 0.04687,1.07813 z M 33.542969,171.55613 q 0,0.1875 -0.421875,0.9375 -0.421875,0.75 -0.984375,1.59375 -0.515625,0.79687 -1.03125,1.45312 -0.46875,0.65625 -0.65625,0.65625 -0.09375,0 -0.75,-0.42187 -0.609375,-0.46875 -1.359375,-1.03125 -0.84375,-0.60938 -1.921875,-1.45313 -0.1875,-0.1875 -0.328125,-0.1875 -0.140625,0 -0.328125,0.1875 -0.703125,1.03125 -1.265625,1.82813 -0.515625,0.70312 -0.984375,1.26562 -0.421875,0.5625 -0.5625,0.5625 -0.140625,0 -0.84375,-0.42187 -0.65625,-0.46875 -1.40625,-1.03125 -0.75,-0.5625 -1.359375,-1.07813 -0.609375,-0.51562 -0.609375,-0.65625 0,-0.1875 0.421875,-0.89062 0.46875,-0.75 1.03125,-1.54688 0.5625,-0.84375 1.03125,-1.5 0.515625,-0.65625 0.609375,-0.65625 0.234375,0 0.84375,0.46875 0.609375,0.46875 1.265625,0.98438 0.796875,0.60937 1.734375,1.40625 0.28125,0.28125 0.421875,0.28125 0.140625,0 0.328125,-0.375 0.703125,-0.98438 1.3125,-1.78125 0.515625,-0.65625 0.984375,-1.21875 0.46875,-0.60938 0.5625,-0.60938 0.140625,0 0.84375,0.46875 0.703125,0.46875 1.453125,1.07813 0.75,0.5625 1.359375,1.07812 0.609375,0.51563 0.609375,0.60938 z"
           style="font-style:normal;font-variant:normal;font-weight:normal;font-stretch:normal;font-size:96px;line-height:0.60000002;font-family:Scheherazade;-inkscape-font-specification:Scheherazade;fill:#000080"
           id="path50" />
        <path
           d="m 224.65234,251.3405 q 0,0.1875 -0.25,1.1875 -0.1875,0.9375 -0.5625,2.0625 -0.3125,1.125 -0.625,2 -0.3125,0.875 -0.5,0.875 -1.9375,0 -4.25,0 -2.25,-0.0625 -4.4375,-0.125 -2.1875,-0.0625 -4.0625,-0.0625 -1.8125,-0.0625 -2.875,-0.0625 -2.375,0 -4.625,0.4375 -2.1875,0.4375 -4.1875,1.125 -2,0.625 -3.8125,1.5 -1.75,0.8125 -3.25,1.5625 -2.5625,1.3125 -5.125,2.8125 -2.5625,1.4375 -5.1875,2.6875 -2.5625,1.1875 -5.25,2 -2.625,0.8125 -5.375,0.8125 h -2.3125 q -1.1875,0 -1.875,-0.3125 -0.6875,-0.375 -1,-0.9375 -0.375,-0.5625 -0.4375,-1.25 -0.125,-0.6875 -0.125,-1.4375 0,-0.75 0.125,-1.4375 0.0625,-0.6875 0.4375,-1.1875 0.3125,-0.5625 1,-0.875 0.6875,-0.375 1.875,-0.375 h 2.3125 q 2.375,0 4.5,-0.1875 2.125,-0.1875 4.125,-0.5625 2,-0.4375 3.9375,-1.0625 2,-0.625 4.1875,-1.5 2.375,-1 5.125,-2 2.75,-1.0625 5.375,-1.875 -2.125,-0.625 -4.1875,-1.5 -2,-0.9375 -4.0625,-1.6875 -2,-0.8125 -4.0625,-1.375 -2,-0.5625 -4.0625,-0.5625 -1.375,0 -2.6875,0.25 -1.3125,0.25 -2.4375,0.5625 -1.0625,0.25 -1.8125,0.5 -0.6875,0.25 -0.875,0.25 -0.375,0 -0.375,-0.5 0,-0.6875 0.4375,-1.6875 0.4375,-1.0625 1.125,-2.125 0.75,-1.125 1.6875,-2.1875 0.9375,-1.0625 2,-1.8125 1.375,-1 2.75,-1.25 1.4375,-0.3125 3.625,-0.3125 1.6875,0 3.6875,0.6875 2.0625,0.6875 4.1875,1.625 2.1875,0.9375 4.3125,2 2.125,1 3.9375,1.75 3.3125,1.3125 7.625,2.125 4.375,0.75 9.25,1 3,0.125 5,0.1875 2.0625,0.0625 2.0625,0.25 z m -18.4375,29.3125 q 0,0.25 -0.5625,1.1875 -0.5625,1 -1.3125,2.0625 -0.6875,1.125 -1.375,2 -0.625,0.875 -0.875,0.875 -0.125,0 -1,-0.625 -0.8125,-0.5625 -1.8125,-1.3125 -1.125,-0.8125 -2.5625,-1.9375 -0.25,-0.25 -0.4375,-0.25 -0.1875,0 -0.4375,0.375 -1,1.375 -1.75,2.4375 -0.6875,0.9375 -1.3125,1.6875 -0.625,0.75 -0.8125,0.75 -0.125,0 -1.0625,-0.625 -0.875,-0.5625 -1.9375,-1.375 -1,-0.75 -1.8125,-1.4375 -0.8125,-0.6875 -0.8125,-0.875 0,-0.1875 0.5625,-1.1875 0.625,-1 1.375,-2.0625 0.75,-1.0625 1.375,-1.9375 0.6875,-0.875 0.8125,-0.875 0.3125,0 1.125,0.5625 0.8125,0.625 1.75,1.3125 l 2.375,1.875 q 0.4375,0.3125 0.5,0.3125 0.125,0 0.5,-0.4375 l 1.75,-2.375 q 0.6875,-0.875 1.25,-1.625 0.625,-0.75 0.875,-0.75 0.25,0 1.125,0.5625 0.9375,0.625 1.9375,1.375 1,0.75 1.75,1.4375 0.8125,0.6875 0.8125,0.875 z m -4.375,12.375 q 0,0.1875 -0.5625,1.125 -0.5625,1 -1.25,2.0625 -0.6875,1.0625 -1.4375,1.9375 -0.6875,0.875 -0.9375,0.875 -0.1875,0 -1.125,-0.5625 -0.875,-0.5625 -1.9375,-1.3125 -1,-0.6875 -1.8125,-1.375 -0.8125,-0.6875 -0.8125,-0.9375 0,-0.25 0.5625,-1.25 0.625,-0.9375 1.375,-2.0625 0.75,-1.0625 1.4375,-1.9375 0.6875,-0.875 0.875,-0.875 0.25,0 1.125,0.5625 0.9375,0.625 1.9375,1.375 1,0.8125 1.75,1.5 0.8125,0.6875 0.8125,0.875 z"
           style="font-style:normal;font-variant:normal;font-weight:normal;font-stretch:normal;font-size:128px;line-height:0.60000002;font-family:Scheherazade;-inkscape-font-specification:Scheherazade;fill:#000080"
           id="path52" />
        <path
           d="m 172.96484,266.2155 q 0,0.75 -0.125,1.4375 -0.0625,0.6875 -0.4375,1.25 -0.3125,0.5625 -1,0.9375 -0.6875,0.3125 -1.875,0.3125 h -2.4375 q -1.75,0 -2.9375,-0.5625 -1.1875,-0.5625 -2.1875,-1.625 -0.6875,-0.75 -1.5,-2 -0.8125,-1.3125 -1.3125,-2.4375 -1.125,1.25 -2.25,2.4375 -1.125,1.1875 -2.5,2.125 -1.375,0.9375 -3.125,1.5 -1.6875,0.5625 -4,0.5625 h -2.3125 q -1.1875,0 -1.875,-0.3125 -0.6875,-0.375 -1,-0.9375 -0.375,-0.5625 -0.4375,-1.25 -0.125,-0.6875 -0.125,-1.4375 0,-0.75 0.125,-1.4375 0.0625,-0.6875 0.4375,-1.1875 0.3125,-0.5625 1,-0.875 0.6875,-0.375 1.875,-0.375 h 2.3125 q 2.8125,0 4.875,-0.5625 2.0625,-0.625 3.5,-1.5625 1.5,-0.9375 2.4375,-1.9375 1,-1.0625 1.625,-2 0.625,-0.9375 1,-1.5 0.4375,-0.625 0.75,-0.625 0.375,0 0.5,1.0625 0.125,1.0625 0.625,2.375 0.25,0.75 0.625,1.625 0.4375,0.8125 0.9375,1.5625 0.5625,0.6875 1.25,1.125 0.75,0.4375 1.6875,0.4375 h 2.4375 q 1.1875,0 1.875,0.375 0.6875,0.3125 1,0.875 0.375,0.5 0.4375,1.1875 0.125,0.6875 0.125,1.4375 z m -5.875,14.5 q 0,0.25 -0.5625,1.25 -0.5625,1 -1.3125,2.0625 -0.6875,1.125 -1.375,2 -0.625,0.875 -0.875,0.875 -0.125,0 -1,-0.625 -0.8125,-0.5625 -1.8125,-1.3125 -1.125,-0.8125 -2.5625,-1.9375 -0.25,-0.25 -0.4375,-0.25 -0.1875,0 -0.4375,0.25 -0.9375,1.375 -1.6875,2.4375 -0.6875,0.9375 -1.3125,1.6875 -0.5625,0.75 -0.75,0.75 -0.1875,0 -1.125,-0.625 -0.875,-0.5625 -1.875,-1.3125 -1,-0.75 -1.8125,-1.4375 -0.8125,-0.6875 -0.8125,-0.875 0,-0.25 0.5625,-1.25 0.625,-0.9375 1.375,-2.0625 0.75,-1.0625 1.375,-1.9375 0.6875,-0.875 0.8125,-0.875 0.3125,0 1.125,0.625 0.8125,0.625 1.6875,1.3125 1.0625,0.8125 2.3125,1.875 0.375,0.375 0.5625,0.375 0.1875,0 0.4375,-0.5 0.9375,-1.3125 1.75,-2.375 0.6875,-0.875 1.3125,-1.6875 0.625,-0.75 0.75,-0.75 0.1875,0 1.125,0.625 0.9375,0.625 1.9375,1.375 1,0.8125 1.8125,1.5 0.8125,0.6875 0.8125,0.8125 z"
           style="font-style:normal;font-variant:normal;font-weight:normal;font-stretch:normal;font-size:128px;line-height:0.60000002;font-family:Scheherazade;-inkscape-font-specification:Scheherazade;fill:#000080"
           id="path54" />
        <path
           d="m 149.77734,266.2155 q 0,0.75 -0.125,1.4375 -0.0625,0.6875 -0.4375,1.25 -0.3125,0.5625 -1,0.9375 -0.6875,0.3125 -1.875,0.3125 h -2.3125 q -3.3125,0 -5.875,-2.75 -2.5625,-2.8125 -4.375,-7.125 -0.875,1.8125 -1.8125,3.3125 -0.875,1.5 -2.0625,2.625 -1.125,1.125 -2.5625,1.75 -1.375,0.625 -3.125,0.625 -1.6875,0 -2.875,-0.4375 -1.125,-0.4375 -1.9375,-1.1875 -0.8125,-0.75 -1.375,-1.75 -0.5,-1 -0.875,-2.125 -2.375,3.3125 -5.3125,5.125 -2.875,1.8125 -7.5,1.8125 -3,0 -5.374996,-1.4375 -2.3125,-1.5 -3.9375,-4.9375 -2.375,3.5625 -5.3125,5.0625 -2.9375,1.4375 -6.1875,1.4375 h -2.3125 q -1.1875,0 -1.875,-0.3125 -0.6875,-0.375 -1,-0.9375 -0.375,-0.5625 -0.4375,-1.25 -0.125,-0.6875 -0.125,-1.4375 0,-0.75 0.125,-1.4375 0.0625,-0.6875 0.4375,-1.1875 0.3125,-0.5625 1,-0.875 0.6875,-0.375 1.875,-0.375 h 2.3125 q 2.75,0 4.75,-0.625 2,-0.625 3.4375,-1.5 1.4375,-0.9375 2.375,-2 0.9375,-1.125 1.5625,-2 0.6875,-0.9375 1.125,-1.5625 0.4375,-0.625 0.8125,-0.625 0.4375,0 0.5625,0.625 0.125,0.5625 0.25,1.5 0.1875,0.875 0.4375,1.9375 0.3125,1 1,1.9375 0.749996,0.875 1.999996,1.5 1.3125,0.5625 3.4375,0.5625 2.8125,0 4.9375,-0.6875 2.125,-0.6875 3.625,-1.75 1.5625,-1.0625 2.625,-2.25 1.0625,-1.1875 1.75,-2.25 0.75,-1.0625 1.125,-1.75 0.4375,-0.6875 0.75,-0.6875 0.1875,0 0.5625,0.375 0.375,0.375 0.375,1.3125 0,0.875 0.1875,1.8125 0.1875,0.9375 0.75,1.6875 0.5625,0.75 1.5,1.25 1,0.5 2.5625,0.5 2.25,0 3.625,-1.125 1.4375,-1.125 2.3125,-2.4375 0.875,-1.375 1.3125,-2.5 0.4375,-1.125 0.8125,-1.125 0.375,0 0.5625,0.375 0.1875,0.3125 0.4375,1.0625 0.3125,1.0625 1,2.5 0.6875,1.4375 1.75,2.75 1.125,1.3125 2.625,2.25 1.5625,0.9375 3.5625,0.9375 h 2.3125 q 1.1875,0 1.875,0.375 0.6875,0.3125 1,0.875 0.375,0.5 0.4375,1.1875 0.125,0.6875 0.125,1.4375 z"
           style="font-style:normal;font-variant:normal;font-weight:normal;font-stretch:normal;font-size:128px;line-height:0.60000002;font-family:Scheherazade;-inkscape-font-specification:Scheherazade;fill:#000080"
           id="path56" />
        <path
           d="m 86.089844,266.2155 q 0,0.75 -0.0625,1.4375 -0.0625,0.6875 -0.375,1.25 -0.3125,0.5625 -0.9375,0.9375 -0.5625,0.3125 -1.625,0.3125 h -2.5 q -2,0 -3.5625,-0.125 -1.5625,-0.1875 -2.875,-0.75 -1.25,-0.625 -2.3125,-1.75 -1.0625,-1.125 -2,-3.125 -2.0625,2.375 -6.1875,4.375 -4.125,1.9375 -9.75,3.375 -5.625,1.5 -12.5625,2.3125 -6.875,0.8125 -14.5,0.8125 -5.5,0 -10.25,-1 -4.75,-1 -8.3125002,-3.125 -3.5000001,-2.0625 -5.5625,-5.25 -2.00000005,-3.1875 -2.00000005,-7.625 0,-2.4375 0.62499995,-4.875 0.6875001,-2.5 1.5000001,-4.5 0.875,-2 1.6874999,-3.25 0.8125,-1.25 1.0625,-1.25 0.1875,0 0.5,0.1875 0.375,0.1875 0.375,0.625 0,0.25 -0.375,1.0625 -0.375,0.75 -0.875,1.8125 -0.4375,1.0625 -0.8125,2.375 -0.375,1.3125 -0.375,2.5625 0,3.1875 1.875,5.75 1.9375,2.5625 5.4375003,4.3125 3.5625,1.75 8.5,2.6875 4.9375,0.9375 11.0625,0.9375 5.25,0 10.6875,-0.375 5.4375,-0.4375 10.375,-1.25 4.9375,-0.875 8.9375,-2.1875 4.0625,-1.375 6.5,-3.25 1.25,-0.9375 1.6875,-1.875 0.4375,-0.9375 1,-0.9375 0.125,0 0.25,0.5 0.1875,0.4375 0.4375,1.125 0.3125,0.625 0.75,1.3125 0.4375,0.6875 1.125,1.1875 0.625,0.5 1.5,0.75 0.9375,0.25 2,0.4375 1.0625,0.125 2.1875,0.1875 1.125,0 2.25,0 h 2.5 q 1.0625,0 1.625,0.375 0.625,0.3125 0.9375,0.875 0.3125,0.5 0.375,1.1875 0.0625,0.6875 0.0625,1.4375 z m -39.9375,-25.125 q 0,0.25 -0.5625,1.25 -0.5625,1 -1.3125,2.125 -0.6875,1.0625 -1.375,1.9375 -0.625,0.875 -0.875,0.875 -0.125,0 -1,-0.5625 -0.8125,-0.625 -1.8125,-1.375 -1.125,-0.8125 -2.5625,-1.9375 -0.25,-0.25 -0.4375,-0.25 -0.1875,0 -0.4375,0.25 -0.9375,1.375 -1.6875,2.4375 -0.6875,0.9375 -1.3125,1.6875 -0.5625,0.75 -0.75,0.75 -0.1875,0 -1.125,-0.5625 -0.875,-0.625 -1.875,-1.375 -1,-0.75 -1.8125,-1.4375 -0.8125,-0.6875 -0.8125,-0.875 0,-0.25 0.5625,-1.1875 0.625,-1 1.375,-2.0625 0.75,-1.125 1.375,-2 0.6875,-0.875 0.8125,-0.875 0.3125,0 1.125,0.625 0.8125,0.625 1.6875,1.3125 1.0625,0.8125 2.3125,1.875 0.375,0.375 0.5625,0.375 0.1875,0 0.4375,-0.5 0.9375,-1.3125 1.75,-2.375 0.6875,-0.875 1.3125,-1.625 0.625,-0.8125 0.75,-0.8125 0.1875,0 1.125,0.625 0.9375,0.625 1.9375,1.4375 1,0.75 1.8125,1.4375 0.8125,0.6875 0.8125,0.8125 z"
           style="font-style:normal;font-variant:normal;font-weight:normal;font-stretch:normal;font-size:128px;line-height:0.60000002;font-family:Scheherazade;-inkscape-font-specification:Scheherazade;fill:#000080"
           id="path58" />
      </g>
      <g
         aria-label="؟"
         style="font-style:normal;font-weight:normal;font-size:155.51637268px;line-height:1.25;font-family:sans-serif;letter-spacing:0px;word-spacing:0px;fill:#000080;fill-opacity:1;stroke:none;stroke-width:0.51838791"
         id="text20">
        <path
           d="m 29.984384,112.61102 q 0,1.74956 -0.534587,3.11032 -0.485989,1.31217 -1.31217,2.28415 -0.82618,0.92338 -1.943954,1.40937 -1.069175,0.48599 -2.284147,0.48599 -1.70096,0 -2.818734,-1.21497 -1.069175,-1.26358 -1.069175,-2.96454 0,-1.45796 0.777581,-2.28414 0.826181,-0.87478 1.74956,-1.55517 0.971977,-0.72898 1.749559,-1.50656 0.826181,-0.77758 0.826181,-2.04115 0,-1.02058 -0.485989,-1.79816 -0.43739,-0.82618 -1.166373,-1.31217 -0.728983,-0.53459 -1.652361,-0.77758 -0.923379,-0.2916 -1.895356,-0.2916 -1.409367,0 -2.721537,0.48599 -1.26357,0.48599 -2.235548,1.40937 -0.971977,0.87478 -1.603762,2.13835 -0.583187,1.26357 -0.583187,2.77014 0,1.40936 0.583187,2.91593 0.631785,1.50656 1.555164,3.25612 0.971977,1.70096 2.041152,3.69352 1.069175,1.94395 1.992554,4.2767 0.971977,2.28414 1.555163,5.00568 0.631786,2.72154 0.631786,5.92906 0,1.55516 -0.0972,2.38135 -0.0486,0.82618 -0.291593,1.79815 -0.194396,0.68039 -0.388791,0.77759 -0.194396,0.0972 -0.728983,0.0972 -0.583187,0 -0.728983,-0.29159 -0.145797,-0.29159 -0.145797,-0.68038 0,-0.243 0,-0.68039 0.0486,-0.43739 0.0972,-0.87478 0.0486,-0.43739 0.0486,-0.82618 0.0486,-0.38879 0.0486,-0.53459 0,-1.84675 -0.340193,-3.01313 -0.340192,-1.16637 -0.971977,-2.04115 -0.631785,-0.92338 -1.555164,-1.70096 -0.923378,-0.82618 -2.089751,-1.94395 -1.555164,-1.45797 -2.915932,-2.81874 -1.3607682,-1.36077 -2.3813444,-2.91593 -1.0205762,-1.60376 -1.6037626,-3.49912 -0.5831864,-1.89535 -0.5831864,-4.3739 0,-2.67293 1.0205762,-5.05428 1.0691751,-2.38134 2.8187342,-4.1309 1.798158,-1.79816 4.130904,-2.81874 2.332745,-1.02057 4.957084,-1.02057 2.332746,0 4.228102,0.92338 1.943954,0.87478 3.353321,2.38134 1.409368,1.50656 2.186949,3.45052 0.777582,1.89536 0.777582,3.98511 z m -6.366451,35.96316 q 0,0.87478 -0.340192,1.60376 -0.340192,0.77758 -0.923379,1.31217 -0.583186,0.58319 -1.360768,0.92338 -0.777582,0.34019 -1.652362,0.34019 -0.874779,0 -1.652361,-0.34019 -0.777582,-0.34019 -1.360768,-0.92338 -0.583187,-0.53459 -0.923379,-1.31217 -0.340192,-0.72898 -0.340192,-1.60376 0,-1.79816 1.214972,-3.01313 1.26357,-1.26357 3.061728,-1.26357 0.87478,0 1.652362,0.34019 0.777582,0.34019 1.360768,0.92338 0.583187,0.58318 0.923379,1.36077 0.340192,0.77758 0.340192,1.65236 z"
           style="font-style:normal;font-variant:normal;font-weight:normal;font-stretch:normal;font-size:99.53047943px;font-family:Scheherazade;-inkscape-font-specification:Scheherazade;fill:#000080;stroke-width:0.51838791"
           id="path61" />
      </g>
    </g>
  </g>
</svg>
